<?xml version="1.0" encoding="iso-8859-1"?>
<!-- Generator: Adobe Illustrator 19.0.0, SVG Export Plug-In . SVG Version: 6.00 Build 0)  -->
<svg version="1.1" id="Capa_1" xmlns="http://www.w3.org/2000/svg" xmlns:xlink="http://www.w3.org/1999/xlink" x="0px" y="0px"
	 viewBox="0 0 512 512" style="enable-background:new 0 0 512 512;" xml:space="preserve">
<path style="fill:#FFD2E6;" d="M512,256c0,141.385-114.615,256-256,256S0,397.385,0,256S114.615,0,256,0S512,114.615,512,256z"/>
<path style="fill:#FFA5C8;" d="M463.681,405.688c-14.891,20.625-32.777,38.939-53.023,54.313H380h-50h-30c-5.523,0-10-4.477-10-10
	v-10c0-16.568,13.431-30,30-30h3.373c5.618-11.824,17.666-20,31.627-20c9.685,0,18.45,3.935,24.786,10.291
	C388.894,387.982,403.513,380,420,380C438.786,380,455.138,390.368,463.681,405.688z M200,360h-3.373
	c-5.618-11.824-17.666-20-31.627-20c-9.685,0-18.45,3.935-24.786,10.291C131.106,337.982,116.487,330,100,330
	c-20.501,0-38.111,12.344-45.828,30H50c-9.199,0-17.426,4.145-22.929,10.662c6.966,13.881,15.15,27.042,24.424,39.338H60h80h50h30
	c5.523,0,10-4.477,10-10v-10C230,373.432,216.569,360,200,360z"/>
<path style="fill:#D72D73;" d="M435.983,177.482c0.249,18.246-2.219,35.877-7.023,52.518c-2.747,9.516-22.988,65.083-22.988,65.083
	c-4.96,14.88-18.885,24.916-34.57,24.916h-29.149l-33.892-18.64L274.469,320h-36.938l-33.892-18.64L169.748,320h-29.15
	c-15.685,0-29.61-10.037-34.57-24.916l-12.526-37.576c-11.438-23.938-17.749-50.795-17.495-79.153
	c0.885-98.91,80.658-178.097,179.51-178.354C354.493-0.257,434.629,78.515,435.983,177.482z"/>
<path style="fill:#C42364;" d="M177.742,315.604L169.748,320h-29.15c-15.685,0-29.61-10.037-34.57-24.916
	c0,0-23.057-63.324-26.029-77.187c-2.73-12.733-4.113-25.966-3.992-39.542c0.79-88.356,64.535-160.966,148.594-175.64
	C51.5,87,123,298,177.742,315.604z"/>
<path style="fill:#FFA5C8;" d="M490,220L490,220c0,5.523-4.477,10-10,10h-30h-50h-30c-5.523,0-10-4.477-10-10l0,0
	c0-16.569,13.431-30,30-30h1.714c4.119-11.651,15.225-20,28.286-20h10c13.061,0,24.167,8.349,28.286,20H460
	C476.569,190,490,203.431,490,220z"/>
<path style="fill:#FFE13C;" d="M328.19,257.717C322.889,293.5,292.174,320,256,320l0,0c-36.174,0-66.889-26.5-72.19-62.283
	l-0.031-0.21c-5.083-23.938-7.888-50.795-7.775-79.153C176.397,79.283,211.967,0,256,0l0,0c44.183,0,80,80.589,80,180
	c0,27.751-2.794,54.033-7.779,77.507L328.19,257.717z"/>
<path style="fill:#F7D139;" d="M252.159,319.891c-34.486-1.799-63.237-27.665-68.349-62.174l-0.031-0.209
	c-5.083-23.938-7.888-50.795-7.775-79.153C176.397,79.283,211.967,0,256,0l0,0c2.837,0,5.638,0.338,8.399,0.985
	c-26.139,32.772-44.116,100.612-44.395,179.663c-0.113,31.903,2.692,62.117,7.775,89.047l0.031,0.236
	C230.449,289.97,239.387,307.417,252.159,319.891z"/>
<path style="fill:#2D5A5F;" d="M422.59,288.132c-1.313-2.414-3.842-3.918-6.59-3.918H96c-2.748,0-5.276,1.504-6.59,3.918
	c-1.313,2.415-1.199,5.354,0.296,7.661c11.895,18.354,33.264,30.183,56.548,31.569l67.246,85.24V450c0,4.143,3.357,7.5,7.5,7.5h70
	c4.143,0,7.5-3.357,7.5-7.5v-38.665l66.208-83.926c23.685-1.093,45.514-12.99,57.585-31.616
	C423.789,293.486,423.902,290.547,422.59,288.132z M295.075,299.214c-10.224,8.403-23.831,13.286-38.161,13.286
	c-14.33,0-27.938-4.884-38.16-13.286H295.075z M112.696,299.214h76.321c-10.222,8.402-23.83,13.286-38.16,13.286
	S122.92,307.617,112.696,299.214z M164.511,326.284c15.194-2.724,29.079-9.913,39.375-20.388
	c11.468,11.668,27.391,19.254,44.614,21.137v79.242c-5.679,3.108-12.432,3.18-18.188,0.15l-4.408-2.32L164.511,326.284z
	 M283.5,442.5h-55v-20.589c9.307,3.112,19.488,2.092,28.141-2.999l0.164-0.097c8.17,4.514,17.779,5.482,26.695,2.686V442.5z
	 M284.593,404.744l-3.009,1.433c-5.867,2.793-12.601,2.438-18.084-0.824v-78.138c17.469-1.492,33.722-8.857,45.529-20.416
	c9.996,9.786,23.179,16.565,37.591,19.319L284.593,404.744z M361.143,312.5c-14.33,0-27.938-4.884-38.16-13.286h76.321
	C389.08,307.617,375.473,312.5,361.143,312.5z"/>
<path style="fill:#FF7D0A;" d="M309.239,446.338l-14.171,51.015c-2.405,8.656-10.286,14.647-19.27,14.647h-39.597
	c-8.984,0-16.866-5.991-19.27-14.647l-14.171-51.015c-0.885-3.186,1.511-6.338,4.818-6.338h96.844
	C307.728,440,310.124,443.152,309.239,446.338z"/>
<path style="fill:#DC550A;" d="M294.17,499.866C291.058,507.143,283.881,512,275.798,512h-39.597
	c-8.984,0-16.866-5.991-19.27-14.647l-14.171-51.015c-0.885-3.186,1.511-6.338,4.817-6.338h13.145c4.854,33.921,34.014,60,69.277,60
	C291.401,500,292.789,499.947,294.17,499.866z"/>
<g>
</g>
<g>
</g>
<g>
</g>
<g>
</g>
<g>
</g>
<g>
</g>
<g>
</g>
<g>
</g>
<g>
</g>
<g>
</g>
<g>
</g>
<g>
</g>
<g>
</g>
<g>
</g>
<g>
</g>
</svg>
