<?xml version="1.0" encoding="iso-8859-1"?>
<!-- Generator: Adobe Illustrator 19.0.0, SVG Export Plug-In . SVG Version: 6.00 Build 0)  -->
<svg version="1.1" id="Capa_1" xmlns="http://www.w3.org/2000/svg" xmlns:xlink="http://www.w3.org/1999/xlink" x="0px" y="0px"
	 viewBox="0 0 512 512" style="enable-background:new 0 0 512 512;" xml:space="preserve">
<path style="fill:#41739B;" d="M70.108,80C116.767,30.736,182.792,0,256,0s139.233,30.736,185.892,80H70.108z"/>
<path style="fill:#FFFAD2;" d="M512,256c0,141.385-114.615,256-256,256C120.459,512,9.54,406.66,0.6,273.385
	C0.219,272.326,0,271.19,0,270V170c0-5.523,4.477-10,10-10h8.638c1.363-3.366,2.777-6.707,4.278-10h466.168
	C503.797,182.3,512,218.191,512,256z"/>
<path style="fill:#FFF091;" d="M335,320h168.935c-1.746,6.782-3.777,13.448-6.052,20H335c-2.761,0-5-2.239-5-5v-10
	C330,322.239,332.239,320,335,320z M330,405v10c0,2.761,2.239,5,5,5h117.561c5.353-6.409,10.401-13.082,15.116-20H335
	C332.239,400,330,402.239,330,405z M330,445v10c0,2.761,2.239,5,5,5h75.658c8.168-6.202,15.95-12.882,23.309-20H335
	C332.239,440,330,442.239,330,445z M511.488,240H335c-2.761,0-5,2.239-5,5v10c0,2.761,2.239,5,5,5h176.949
	c0.02-1.333,0.051-2.663,0.051-4C512,250.625,511.814,245.293,511.488,240z M335,300h145c2.761,0,5-2.239,5-5v-10
	c0-2.761-2.239-5-5-5H335c-2.761,0-5,2.239-5,5v10C330,297.761,332.239,300,335,300z M335,380h105c2.761,0,5-2.239,5-5v-10
	c0-2.761-2.239-5-5-5H335c-2.761,0-5,2.239-5,5v10C330,377.761,332.239,380,335,380z"/>
<path style="fill:#AFEBD2;" d="M140,210h160v298.22c-14.297,2.477-28.995,3.78-44,3.78c-41.757,0-81.176-10.003-116-27.736V210z"/>
<path style="fill:#3CAF96;" d="M509.468,220H310H2.532H0V81c0-5.523,4.477-10,10-10h69.057H300h132.943
	C473.473,109.776,501.268,161.741,509.468,220z M275,360H165c-2.761,0-5,2.239-5,5v10c0,2.761,2.239,5,5,5h110c2.761,0,5-2.239,5-5
	v-10C280,362.239,277.761,360,275,360z M165,420h80c2.761,0,5-2.239,5-5v-10c0-2.761-2.239-5-5-5h-80c-2.761,0-5,2.239-5,5v10
	C160,417.761,162.239,420,165,420z M275,440H165c-2.761,0-5,2.239-5,5v10c0,2.761,2.239,5,5,5h110c2.761,0,5-2.239,5-5v-10
	C280,442.239,277.761,440,275,440z M275,240H165c-2.761,0-5,2.239-5,5v10c0,2.761,2.239,5,5,5h110c2.761,0,5-2.239,5-5v-10
	C280,242.239,277.761,240,275,240z M165,300h80c2.761,0,5-2.239,5-5v-10c0-2.761-2.239-5-5-5h-80c-2.761,0-5,2.239-5,5v10
	C160,297.761,162.239,300,165,300z M160,335c0,2.761,2.239,5,5,5h100c2.761,0,5-2.239,5-5v-10c0-2.761-2.239-5-5-5H165
	c-2.761,0-5,2.239-5,5V335z"/>
<path style="fill:#82D2AF;" d="M493.576,160.5H265c-2.761,0-5-2.239-5-5v-20c0-2.761,2.239-5,5-5h214.159
	C484.588,140.131,489.411,150.147,493.576,160.5z"/>
<path style="fill:#AFEBD2;" d="M100,325v10c0,2.761-2.239,5-5,5H35c-2.761,0-5-2.239-5-5v-10c0-2.761,2.239-5,5-5h60
	C97.761,320,100,322.239,100,325z M95,280H35c-2.761,0-5,2.239-5,5v10c0,2.761,2.239,5,5,5h60c2.761,0,5-2.239,5-5v-10
	C100,282.239,97.761,280,95,280z M95,360H35c-2.761,0-5,2.239-5,5v10c0,2.761,2.239,5,5,5h60c2.761,0,5-2.239,5-5v-10
	C100,362.239,97.761,360,95,360z M95,240H35c-2.761,0-5,2.239-5,5v10c0,2.761,2.239,5,5,5h60c2.761,0,5-2.239,5-5v-10
	C100,242.239,97.761,240,95,240z M95,400H44.323c4.715,6.918,9.763,13.591,15.116,20H95c2.761,0,5-2.239,5-5v-10
	C100,402.239,97.761,400,95,400z M95,440H78.033c6.617,6.401,13.574,12.451,20.85,18.115c0.688-0.857,1.117-1.93,1.117-3.115v-10
	C100,442.239,97.761,440,95,440z M191.876,110.704L191.876,110.704c-1.037-2.85-3.705-4.781-6.737-4.877
	c-16.076-0.505-32.1,2.004-47.252,7.381L69.35,99.957c-2.856-0.552-4.822,2.79-2.952,5.018l22.01,26.23l-25.306,9.21l-14.974-8.237
	c-2.805-1.543-6.14-1.8-9.148-0.705l-7.151,2.603c-1.821,0.663-2.419,2.94-1.159,4.413l18.229,21.301
	c4.761,5.563,11.856,8.314,18.919,7.659c1.075,0.108,2.189-0.009,3.272-0.404l2.273-0.828l0,0l14.251-5.187l70.144-25.53
	c7.992-2.909,15.677-6.6,22.943-11.02l8.062-4.904C191.782,117.74,193.086,114.026,191.876,110.704z M167.449,176.385H79.515
	c-2.761,0-5,2.239-5,5v7.806c0,2.761,2.239,5,5,5h87.934c2.761,0,5-2.239,5-5v-7.806
	C172.449,178.624,170.21,176.385,167.449,176.385z"/>
<g>
</g>
<g>
</g>
<g>
</g>
<g>
</g>
<g>
</g>
<g>
</g>
<g>
</g>
<g>
</g>
<g>
</g>
<g>
</g>
<g>
</g>
<g>
</g>
<g>
</g>
<g>
</g>
<g>
</g>
</svg>
