<?xml version="1.0" encoding="iso-8859-1"?>
<!-- Generator: Adobe Illustrator 19.0.0, SVG Export Plug-In . SVG Version: 6.00 Build 0)  -->
<svg version="1.1" id="Capa_1" xmlns="http://www.w3.org/2000/svg" xmlns:xlink="http://www.w3.org/1999/xlink" x="0px" y="0px"
	 viewBox="0 0 512.001 512.001" style="enable-background:new 0 0 512.001 512.001;" xml:space="preserve">
<path style="fill:#B4EBFF;" d="M437.02,74.981c99.974,99.974,99.974,262.064,0,362.039s-262.064,99.974-362.039,0
	s-99.974-262.064,0-362.039S337.046-24.994,437.02,74.981z"/>
<path style="fill:#6CD0F5;" d="M358.532,153.47c86.496,86.496,98.14,219.482,34.965,318.515
	c-99.033,63.175-232.019,51.531-318.515-34.965s-98.14-219.482-34.966-318.515C139.049,55.329,272.035,66.973,358.532,153.47z"/>
<path style="fill:#4BB9E1;" d="M395.005,469.562c-0.503,0.808-0.996,1.619-1.509,2.422
	c-99.033,63.175-232.019,51.531-318.515-34.965c-86.496-86.497-98.14-219.482-34.966-318.516c0.803-0.512,1.615-1.006,2.423-1.509
	c-33.027,97.031-10.874,208.693,66.5,286.067C186.313,480.437,297.974,502.589,395.005,469.562z"/>
<path style="fill:#FFEB50;" d="M433.204,346.611c-6.537-2.938-12.666-7.08-18.035-12.449c-1.945-1.945-3.715-3.998-5.341-6.125
	c-41.947,26.047-97.771,20.863-134.19-15.557c-42.467-42.467-42.467-111.32,0-153.788c15.567-15.567,34.682-25.42,54.741-29.575
	c9.817,7.326,19.235,15.434,28.152,24.352C411.604,206.542,436.485,277.117,433.204,346.611z M143.535,221.492
	c15.132,15.132,39.666,15.132,54.797,0c14.298-14.298,15.078-36.985,2.357-52.208c0.726-0.567,1.429-1.179,2.097-1.847
	c4.859-4.859,7.054-11.37,6.597-17.725c13.268-1.449,26.151-7.245,36.324-17.417c10.862-10.862,16.735-24.816,17.65-39.028
	c-38.836-13.788-80.329-17.911-120.759-12.372c-2.545,18.226,3.184,37.385,17.199,51.4c2.468,2.468,5.102,4.664,7.855,6.618
	c-3.333,5.092-4.411,11.226-3.238,16.994c-7.646,1.299-14.979,4.888-20.88,10.789C128.403,181.827,128.403,206.36,143.535,221.492z
	 M346.094,457.886c0.729-24.518-8.259-49.271-26.972-67.984c-36.024-36.024-94.431-36.024-130.455,0
	c-3.018,3.018-5.776,6.195-8.288,9.501c-1.686-2.977-3.788-5.782-6.324-8.319c-12.982-12.981-32.878-14.815-47.826-5.523
	c-1.985-4.628-4.573-9.056-7.761-13.171c35.085-42.716,32.68-105.914-7.224-145.818C82.881,198.209,42.75,188.795,6.569,198.318
	c-19.145,83.12,3.651,173.941,68.413,238.703c8.77,8.77,18.025,16.756,27.667,23.987c3.804-2.386,7.408-5.217,10.717-8.526
	c2.123-2.123,4.048-4.368,5.791-6.707c0.035,0.035,0.066,0.072,0.101,0.107c11.464,11.464,28.322,14.234,42.403,8.328
	c-0.149,15.029,3.352,30.086,10.502,43.73c65.582,22.668,138.536,17.895,201.024-14.292c-1.814-5.737-4.985-11.138-9.534-15.687
	C358.612,462.92,352.526,459.568,346.094,457.886z"/>
<path style="fill:#F7D139;" d="M370.215,476.728c1.22,2.226,2.219,4.541,2.971,6.919c-62.487,32.186-135.442,36.959-201.024,14.292
	c-7.15-13.644-10.651-28.701-10.502-43.73c-14.081,5.907-30.939,3.136-42.403-8.328c-0.035-0.035-0.067-0.072-0.101-0.107
	c-1.743,2.338-3.668,4.583-5.791,6.707c-3.31,3.31-6.914,6.141-10.717,8.526c-9.642-7.231-18.897-15.218-27.667-23.987
	c-64.76-64.762-87.557-155.583-68.412-238.703c6.986-1.839,14.119-2.963,21.286-3.39c-3.161,74.94,23.862,150.915,81.083,208.136
	C179.798,473.922,279.415,498.463,370.215,476.728z"/>
<path style="fill:#FF4682;" d="M130.001,435c0,13.691-5.014,26.205-13.292,35.831c-14.77-9.597-28.773-20.857-41.727-33.811
	c-13.653-13.653-25.428-28.472-35.352-44.125C49.193,384.852,61.528,380,75.001,380C105.377,380,130.001,404.625,130.001,435z"/>
<path style="fill:#C42364;" d="M100.001,435c0,7.03-2.905,13.377-7.576,17.919c-5.993-4.99-11.821-10.278-17.443-15.9
	c-6.306-6.306-12.212-12.861-17.722-19.63C61.789,412.827,68.064,410,75.001,410C88.808,410,100.001,421.193,100.001,435z"/>
<path style="fill:#41739B;" d="M211.338,305.614c1.562,1.563,1.562,4.095,0,5.657l-21.323,21.323c-1.562,1.562-4.095,1.562-5.657,0
	l-4.95-4.95c-1.562-1.563-1.562-4.095,0-5.657l21.323-21.323c1.562-1.562,4.095-1.562,5.657,0L211.338,305.614z M165.919,341.133
	c-1.562-1.562-4.095-1.562-5.657,0l-21.323,21.324c-1.562,1.562-1.562,4.094,0,5.657l4.95,4.95c1.562,1.562,4.095,1.562,5.657,0
	l21.323-21.324c1.562-1.562,1.562-4.094,0-5.657L165.919,341.133z M332.746,184.205l-4.95-4.95c-1.562-1.562-4.095-1.562-5.657,0
	l-21.323,21.323c-1.562,1.562-1.562,4.094,0,5.657l4.95,4.95c1.562,1.562,4.095,1.562,5.657,0l21.323-21.323
	C334.308,188.3,334.308,185.768,332.746,184.205z M125.449,381.603c-1.562-1.562-4.095-1.562-5.657,0l-21.323,21.323
	c-1.562,1.562-1.562,4.094,0,5.657l4.95,4.95c1.562,1.562,4.095,1.562,5.657,0l21.323-21.323c1.562-1.562,1.562-4.094,0-5.657
	L125.449,381.603z M287.327,219.725c-1.562-1.562-4.095-1.562-5.657,0l-21.323,21.323c-1.562,1.562-1.562,4.094,0,5.657l4.95,4.95
	c1.562,1.562,4.095,1.562,5.657,0l21.323-21.323c1.562-1.562,1.562-4.094,0-5.657L287.327,219.725z M246.858,260.194
	c-1.562-1.562-4.095-1.562-5.657,0l-21.323,21.323c-1.562,1.562-1.562,4.094,0,5.657l4.95,4.95c1.562,1.562,4.095,1.563,5.657,0
	l21.323-21.323c1.562-1.562,1.562-4.094,0-5.657L246.858,260.194z"/>
<path style="fill:#4191BE;" d="M490.648,175.623c1.442,4.488-3.296,5.824-7.115,2.006l-61.375-61.375l-34.447,34.447
	c-3.037,3.037-6.599,5.221-10.389,6.588l8.185,33.377c0.486,1.981-1.712,2.764-3.301,1.175l-24.805-24.803l-16.042,7.958
	c-2.787,1.383-5.735-1.566-4.353-4.353l7.958-16.042l-24.805-24.806c-1.588-1.588-0.806-3.787,1.176-3.3l33.377,8.185
	c1.367-3.79,3.55-7.351,6.588-10.389l34.447-34.447l-61.375-61.375c-3.819-3.818-2.483-8.557,2.005-7.115l96.772,31.088
	l24.156-24.156c8.661-8.661,21.539-10.531,32.024-5.614c4.917,10.485,3.047,23.363-5.614,32.024l-24.156,24.156L490.648,175.623z"/>
<g>
</g>
<g>
</g>
<g>
</g>
<g>
</g>
<g>
</g>
<g>
</g>
<g>
</g>
<g>
</g>
<g>
</g>
<g>
</g>
<g>
</g>
<g>
</g>
<g>
</g>
<g>
</g>
<g>
</g>
</svg>
