<?xml version="1.0" encoding="iso-8859-1"?>
<!-- Generator: Adobe Illustrator 19.0.0, SVG Export Plug-In . SVG Version: 6.00 Build 0)  -->
<svg version="1.1" id="Capa_1" xmlns="http://www.w3.org/2000/svg" xmlns:xlink="http://www.w3.org/1999/xlink" x="0px" y="0px"
	 viewBox="0 0 512 512" style="enable-background:new 0 0 512 512;" xml:space="preserve">
<path style="fill:#B4EBFF;" d="M512,256c0,141.385-114.615,256-256,256S0,397.385,0,256S114.615,0,256,0S512,114.615,512,256z"/>
<path style="fill:#46A5CD;" d="M429.208,296.141C431.04,308.496,432,321.135,432,334c0,51.634-15.3,99.687-41.594,139.902
	C351.339,498.05,305.302,512,256,512c-19.154,0-37.817-2.107-55.77-6.095c7.072-6.377,11.52-15.609,11.52-25.881
	c0-10.67-4.802-20.214-12.356-26.605c0.479-2.674,0.743-5.423,0.743-8.236c0-25.656-20.799-46.455-46.455-46.455
	c-4.586,0-9.013,0.675-13.198,1.914c-23.119-33.295-60.377-56.031-103.087-59.51c-1.549-29.078-15.683-54.813-37.05-71.865
	C0.122,264.872,0,260.45,0,256c0-51.634,15.3-99.687,41.594-139.902c32.756-20.247,70.413-33.319,110.785-37.015
	c6.381-0.584,12.604,2.243,16.382,7.419c16.195,22.185,38.72,38.896,64.328,48.057c-7.531,22.775-9.148,47.827-3.436,72.922
	c2.872,12.619,7.41,24.426,13.328,35.244c-12.489,6.596-19.159,21.476-14.481,35.878c4.374,13.465,17.893,22.126,31.951,20.45
	c8.886-1.059,16.233-5.77,20.934-12.332c30.833,22.835,71.069,32.59,111.414,23.407
	C405.876,307.151,418.075,302.379,429.208,296.141z"/>
<path style="fill:#4191BE;" d="M402.039,454.245c-3.592,6.737-7.474,13.295-11.634,19.657C351.339,498.05,305.302,512,256,512
	c-19.236,0-37.976-2.122-56-6.143C149.378,494.56,114.412,466.376,80,430C39.602,387.296,3.749,332.583,0.376,270
	C0.127,265.365,0,260.697,0,256c0-51.634,15.3-99.687,41.594-139.902c5.959-3.684,12.083-7.127,18.353-10.322
	C40.842,141.624,30,182.543,30,226c0,141.385,114.615,256,256,256C327.773,482,367.206,471.99,402.039,454.245z"/>
<path style="fill:#FFE13C;" d="M430.662,307.679C405.714,339.523,366.921,360,323.331,360c-41.377,0-78.444-18.442-103.44-47.551
	C214.596,317.144,207.633,320,200,320c-16.569,0-30-13.431-30-30c0-13.873,9.419-25.541,22.21-28.972
	c-3.37-11.861-5.174-24.381-5.174-37.323c0-25.737,7.137-49.806,19.535-70.341c-26.747-17.045-47.134-43.168-56.857-74.022
	C158.357,78.459,167.124,78,176,78C308.498,78,417.484,178.66,430.662,307.679z M110,200c7.82,0,14.574-4.499,17.862-11.04
	c2.262,0.673,4.657,1.04,7.138,1.04c13.807,0,25-11.193,25-25s-11.193-25-25-25c-12.103,0-22.197,8.602-24.503,20.025
	C110.33,160.021,110.168,160,110,160c-11.046,0-20,8.954-20,20S98.954,200,110,200z M249.361,437.091
	c0.412-2.303,0.639-4.67,0.639-7.091c0-22.091-17.909-40-40-40c-3.949,0-7.761,0.581-11.364,1.648
	c-19.906-28.668-51.988-48.246-88.763-51.241C107.486,295.599,70.403,260,25,260c-8.656,0-17.006,1.302-24.875,3.707
	c3.616,122.245,92.924,222.971,209.932,244.174c2.903-6.663,5.213-13.643,6.878-20.87c3.95,1.914,8.382,2.989,13.065,2.989
	c16.569,0,30-13.431,30-30C260,450.812,255.866,442.594,249.361,437.091z M380,370c-11.046,0-20,8.954-20,20s8.954,20,20,20
	s20-8.954,20-20S391.046,370,380,370z"/>
<path style="fill:#F7D139;" d="M252.511,479.82C247.014,486.059,238.969,490,230,490c-4.684,0-9.116-1.074-13.065-2.989
	c-1.665,7.227-3.975,14.207-6.878,20.87C93.049,486.678,3.741,385.953,0.125,263.707C7.994,261.302,16.344,260,25,260
	c2.46,0,4.891,0.124,7.298,0.329C47.605,374.529,138.194,464.882,252.511,479.82z"/>
<path style="fill:#FF4682;" d="M427.59,180.01l-86.626,111.719c-0.801,1.033-2.36,1.033-3.161,0L251.177,180.01
	c-34.454-44.434-30.476-107.56,9.282-147.318l0,0c43.589-43.589,114.26-43.589,157.848,0l0,0
	C458.066,72.45,462.043,135.575,427.59,180.01z"/>
<path style="fill:#C42364;" d="M394.383,108.767c0,30.376-24.624,55-55,55s-55-24.624-55-55s24.624-55,55-55
	S394.383,78.392,394.383,108.767z"/>
<path style="fill:#E6FAFF;" d="M490,320L490,320c0,5.523-4.477,10-10,10h-30h-50h-30c-5.523,0-10-4.477-10-10l0,0
	c0-16.569,13.431-30,30-30h1.714c4.119-11.651,15.225-20,28.286-20h10c13.061,0,24.167,8.349,28.286,20H460
	C476.569,290,490,303.431,490,320z"/>
<g>
</g>
<g>
</g>
<g>
</g>
<g>
</g>
<g>
</g>
<g>
</g>
<g>
</g>
<g>
</g>
<g>
</g>
<g>
</g>
<g>
</g>
<g>
</g>
<g>
</g>
<g>
</g>
<g>
</g>
</svg>
