<svg id="Capa_1" enable-background="new 0 0 512 512" height="512" viewBox="0 0 512 512" width="512" xmlns="http://www.w3.org/2000/svg"><g><g><path d="m480.468 379.159c20.092-36.542 31.532-78.512 31.532-123.159 0-141.385-114.615-256-256-256s-256 114.615-256 256c0 44.647 11.44 86.617 31.532 123.159z" fill="#ffbb16"/></g><g><g><path d="m314.433 137.674 9.472 22.867c.894 2.159 3.07 3.504 5.401 3.338 19.701-1.4 38.416-9.152 53.337-22.093 1.766-1.531 2.353-4.021 1.459-6.18l-9.472-22.867c-.894-2.159-3.07-3.504-5.401-3.338-19.701 1.4-38.416 9.152-53.337 22.093-1.765 1.531-2.353 4.021-1.459 6.18z" fill="#ccc"/></g><g><path d="m364.918 108.89 15.039 36.306c1.585 3.827 5.972 5.644 9.799 4.059 3.827-1.585 5.644-5.972 4.059-9.799l-15.039-36.306c-1.585-3.827-5.972-5.644-9.799-4.059-3.827 1.585-5.644 5.972-4.059 9.799z" fill="#f73e3e"/></g><g><path d="m143.702 170.07-117.903-60.449c-2.835-1.454-6.166-1.589-9.11-.369l-13.335 5.524c-3.319 1.375-4.412 5.536-2.197 8.364l71.698 91.557z" fill="#f73e3e"/></g><g><path d="m9.29 112.317-5.936 2.459c-3.319 1.375-4.412 5.536-2.197 8.364l71.698 91.557-3.291-44.303c-.441-5.934-3.297-11.427-7.9-15.196z" fill="#d82525"/></g><g><path d="m505.296 72.011-161.414 66.86c-101.045 41.854-205.184 75.808-311.48 101.555-5.886 1.426-9.334-6.396-4.312-9.78 66.633-44.896 137.597-83.004 211.828-113.752l161.5-66.895c33.532-13.889 71.345-13.119 104.284 2.124 8.587 3.974 8.337 16.267-.406 19.888z" fill="#e6e6e6"/></g><g><path d="m267.333 105.539-27.416 11.356c-74.231 30.747-145.194 68.855-211.828 113.751-5.022 3.384-1.573 11.206 4.312 9.78 87.51-21.197 173.554-47.969 257.617-80.119v-.001c-15.124 6.264-32.462-.917-38.726-16.041s.918-32.462 16.041-38.726z" fill="#ccc"/></g><g><path d="m318.184 137.916-136.094 23.204c-3.998.682-7.906 1.809-11.653 3.361l-15.127 6.266c-2.161.895-1.574 4.105.764 4.177l120.202 3.704 50.164-20.779z" fill="#d82525"/></g><g><path d="m322.642 177.055-31.739 8.727c-5.982 1.645-12.252-1.422-14.627-7.154-2.374-5.732-.109-12.334 5.284-15.401l28.614-16.271z" fill="#f73e3e"/></g><g><path d="m291.606 158.883 9.472 22.867c.894 2.159 3.07 3.504 5.401 3.338 19.701-1.4 38.416-9.152 53.337-22.093 1.766-1.531 2.353-4.021 1.459-6.18l-9.472-22.867c-.894-2.159-3.07-3.504-5.401-3.338-19.701 1.4-38.416 9.152-53.337 22.093-1.765 1.532-2.353 4.021-1.459 6.18z" fill="#e6e6e6"/></g><g><path d="m342.091 130.1 15.039 36.306c1.585 3.827 5.972 5.644 9.799 4.059 3.827-1.585 5.644-5.972 4.059-9.799l-15.039-36.306c-1.585-3.827-5.972-5.644-9.799-4.059-3.827 1.585-5.644 5.972-4.059 9.799z" fill="#f73e3e"/></g><g><path d="m465.825 40.952-39.046 16.173c3.443 8.312 12.971 12.258 21.283 8.816l45.316-18.77c-8.979-3.088-18.22-5.157-27.553-6.219z" fill="#5d91c9"/></g><g><path d="m446.845 48.814-20.066 8.312c3.443 8.312 12.971 12.258 21.283 8.816l20.066-8.312c-8.312 3.442-17.841-.504-21.283-8.816z" fill="#3d72a3"/></g><g><path d="m322.048 160.013c-4.134-9.981-.325-21.25 8.498-26.842-13.778 3.477-26.634 10.125-37.48 19.532-1.766 1.531-2.353 4.021-1.459 6.18l9.472 22.867c.894 2.159 3.07 3.504 5.401 3.338 13.723-.975 26.964-5.041 38.781-11.787-9.631 1.334-19.319-3.886-23.213-13.288z" fill="#ccc"/></g><g><path d="m99.736 207.48c-1.585-3.827-5.972-5.644-9.799-4.059l-89.455 37.053c-.307 5.138-.482 10.311-.482 15.526 0 .303.006.604.007.907l95.67-39.628c3.827-1.585 5.645-5.972 4.059-9.799z" fill="#d82525"/></g></g><g><g><path d="m373.306 274.722c-23.78-12.283-49.731-20.948-77.128-25.267l-.001.01-192.655 105.839c38.893 70.734 38.248 144.962 121.996 154.899 9.995 1.187 20.167 1.797 30.482 1.797 61.686 0 118.272-21.821 162.468-58.163 25.113-20.65 32.545-75.814 32.532-75.837z" fill="#3d72a3"/></g><g><path d="m31.532 379.159c38.894 70.736 110.245 121.094 193.998 131.028l35.855-35.855c7.633-7.633 7.633-20.009 0-27.643l-48.953-48.953c-7.633-7.633-20.009-7.633-27.643 0l-8.945 8.945c-7.633 7.633-20.009 7.633-27.643 0l-10.143-10.143c-7.633-7.633-7.633-20.009 0-27.643l48.342-48.342c3.666-3.666 8.637-5.725 13.821-5.725h76.409c10.795 0 19.546-8.751 19.546-19.546v-45.817c-13.09-2.064-26.507-3.147-40.177-3.147-96.737 0-180.932 53.665-224.467 132.841z" fill="#21bf4a"/></g><g><path d="m437.019 321.299c-19.235-19.235-40.775-34.753-63.723-46.586v54.787c0 10.929 4.341 21.41 12.069 29.138l22.106 22.106c8.046 8.046 8.046 21.092 0 29.138l-1.951 1.951c-8.046 8.046-8.046 21.092 0 29.138l12.905 12.905c25.141-20.661 46.269-46.022 62.054-74.737-11.395-20.75-25.877-40.257-43.46-57.84z" fill="#21bf4a"/></g><g><path d="m281.006 247.535c-8.228-.801-16.568-1.217-25.006-1.217-96.738 0-180.933 53.664-224.468 132.841 8.727 15.872 19.093 30.714 30.862 44.307 30.788-95.182 115.792-165.967 218.612-175.931z" fill="#17aa3d"/></g></g></g></svg>