<svg version="1.1" id="Layer_1" xmlns="http://www.w3.org/2000/svg" xmlns:xlink="http://www.w3.org/1999/xlink" x="0px" y="0px"
	 viewBox="0 0 505 505" style="enable-background:new 0 0 505 505;" xml:space="preserve">
<circle style="fill:#90DFAA;" cx="252.5" cy="252.5" r="252.5"/>
<g>
	<path style="fill:#E6E9EE;" d="M376.2,267.2c-3.3,0-6.2,2.2-6.9,5.4c-0.6,3-1,6.2-1,9.5c0,16.3,8.1,29.5,18.2,29.5
		s18.2-13.2,18.2-29.5c0-3.3-0.3-6.5-1-9.5c-0.7-3.2-3.6-5.4-6.9-5.4H376.2z"/>
	<path style="fill:#E6E9EE;" d="M324.6,227c-3.3,0-6.2,2.2-6.9,5.4c-0.6,3-1,6.2-1,9.5c0,16.3,8.1,29.5,18.2,29.5
		s18.2-13.2,18.2-29.5c0-3.3-0.3-6.5-1-9.5c-0.7-3.2-3.6-5.4-6.9-5.4H324.6z"/>
	<path style="fill:#E6E9EE;" d="M128.8,267.2c3.3,0,6.2,2.2,6.9,5.4c0.6,3,1,6.2,1,9.5c0,16.3-8.1,29.5-18.2,29.5
		c-10,0-18.2-13.2-18.2-29.5c0-3.3,0.3-6.5,1-9.5c0.7-3.2,3.6-5.4,6.9-5.4H128.8z"/>
	<path style="fill:#E6E9EE;" d="M180.4,227c3.3,0,6.2,2.2,6.9,5.4c0.6,3,1,6.2,1,9.5c0,16.3-8.1,29.5-18.2,29.5
		c-10,0-18.2-13.2-18.2-29.5c0-3.3,0.3-6.5,1-9.5c0.7-3.2,3.6-5.4,6.9-5.4H180.4z"/>
</g>
<g>
	<polygon style="fill:#324A5E;" points="424.6,309.2 252.5,168 252.5,291.6 424.6,342.7 	"/>
	<polygon style="fill:#324A5E;" points="80.4,309.2 252.5,168 252.5,291.6 80.4,342.7 	"/>
	<polygon style="fill:#324A5E;" points="324.8,420.6 252.5,344.3 252.5,411.1 324.8,438.8 	"/>
	<polygon style="fill:#324A5E;" points="180.2,420.6 252.5,344.3 252.5,411.1 180.2,438.8 	"/>
</g>
<path style="fill:#FFFFFF;" d="M297.5,173.8c0,99.3-20.2,277.6-45,277.6c-24.9,0-45-178.4-45-277.6s45-120.3,45-120.3
	S297.5,74.6,297.5,173.8z"/>
<g>
	<path style="fill:#84DBFF;" d="M280.3,133.5c0,3.9-0.8,7.5-2.2,10.9c-4.2-10-14.1-17-25.7-17c-11.5,0-21.4,7-25.7,17
		c-1.4-3.3-2.2-7-2.2-10.9c0-15.4,12.4-27.8,27.8-27.8C267.9,105.7,280.3,118.1,280.3,133.5z"/>
	<rect x="249.6" y="364.8" style="fill:#84DBFF;" width="5.8" height="60.2"/>
</g>
<g>
</g>
<g>
</g>
<g>
</g>
<g>
</g>
<g>
</g>
<g>
</g>
<g>
</g>
<g>
</g>
<g>
</g>
<g>
</g>
<g>
</g>
<g>
</g>
<g>
</g>
<g>
</g>
<g>
</g>
</svg>